<?xml version="1.0" encoding="UTF-8"?>
<svg id="_x32_" xmlns="http://www.w3.org/2000/svg" version="1.1" viewBox="0 0 800 800">
  <!-- Generator: Adobe Illustrator 29.4.0, SVG Export Plug-In . SVG Version: 2.1.0 Build 152)  -->
  <defs>
    <style>
      .st0 {
        fill: #fff;
      }
    </style>
  </defs>
  <path class="st0" d="M800,494.36c0-21.49-6.13-41.71-16.72-58.76-6.97-11.2-15.86-21.04-26.21-29.11,9.97-14.02,16.73-30.65,18.99-48.85.56-4.45.82-8.89.82-13.28,0-26.69-9.95-51.59-26.63-70.59v.02c-12.06-13.79-27.81-24.53-45.85-30.69,3.81-11.58,5.83-23.64,5.85-35.8v-.09c-.02-12.81-2.24-25.68-6.84-37.96-4.58-12.3-11.53-24-20.84-34.4-10.97-12.29-24.16-21.64-38.39-27.88-14.06-6.16-29.15-9.31-44.29-9.38h-.45v-.02s-.43-.01-1.13.03c-1.78.01-3.56.07-5.34.16-5.2-18.82-15.21-35.68-28.61-49.06-10.07-10.08-22.09-18.24-35.45-23.9-13.08-5.54-27.49-8.63-42.48-8.76-.01,0-.29,0-.76-.02h-.25c-.2,0-.5,0-.95.02-14.99.14-29.37,3.23-42.45,8.76-13.37,5.66-25.38,13.82-35.46,23.9h.02c-2.3,2.3-4.48,4.71-6.58,7.19-2.08-2.48-4.27-4.9-6.56-7.19-10.07-10.08-22.09-18.24-35.45-23.9-13.08-5.54-27.47-8.63-42.48-8.76,0,0-.29,0-.75-.02h-.26c-.19,0-.5,0-.93.02-14.99.14-29.38,3.23-42.47,8.76-13.36,5.66-25.38,13.82-35.45,23.9-13.4,13.38-23.4,30.23-28.61,49.06-1.95-.12-3.91-.17-5.87-.17v-.02s-.14,0-.35-.01c-.04.01-.39,0-1.03.03-15.02.11-30,3.25-43.96,9.36-14.23,6.23-27.42,15.58-38.39,27.89-9.46,10.57-16.57,22.56-21.29,35.17-4.72,12.61-7.07,25.87-7.07,39.07v.56h.01c.06,10.86,1.74,21.67,4.93,32.1-13.16,5.89-24.96,14.22-34.77,24.43v-.03c-9.68,10.05-17.48,21.9-22.88,35s-8.36,27.46-8.36,42.38c0,1.32.03,2.66.07,3.98.52,14.78,3.94,28.88,9.67,41.65,2.36,5.24,5.11,10.26,8.22,15.04-11.65,8.48-21.62,19.13-29.24,31.41C6.13,452.65,0,472.87,0,494.36c0,15.35,3.13,30.07,8.78,43.45,5.66,13.37,13.83,25.38,23.91,35.46h-.01c10.05,10.04,22.02,18.18,35.33,23.84,5.5,2.33,11.23,4.21,17.15,5.65-2.2,8.8-3.32,17.8-3.33,26.76h-.01v.24h0v.04c0,15.34,3.16,30.66,9.42,44.93,6.26,14.25,15.64,27.45,27.99,38.43,10.57,9.41,22.53,16.49,35.12,21.18,12.38,4.61,25.38,6.94,38.35,6.99.2.03.37.03.52.03h.42c10.14-.03,20.27-1.46,30.06-4.25,3.59,5.05,7.58,9.81,11.97,14.19h0c10.07,10.08,22.09,18.24,35.45,23.9,13.06,5.52,27.42,8.62,42.37,8.75.32.01.6.03,1.06.03h.03c.33,0,.49-.02.49-.02,15.17-.06,29.72-3.17,42.94-8.76,13.36-5.66,25.38-13.82,35.45-23.9,2.3-2.3,4.48-4.71,6.56-7.21,2.1,2.5,4.28,4.91,6.58,7.21,10.07,10.08,22.09,18.24,35.45,23.9,13.04,5.52,27.4,8.62,42.37,8.75.32.01.6.03,1.05.03h.04c.32,0,.47-.02.47-.02,15.17-.06,29.73-3.17,42.96-8.76,13.36-5.66,25.38-13.82,35.45-23.91h0c4.38-4.37,8.37-9.12,11.96-14.17,9.9,2.8,20.11,4.25,30.36,4.25h.14c.27,0,.43-.01.44-.01,12.97-.07,25.98-2.39,38.39-7.03,12.58-4.68,24.55-11.76,35.12-21.17,12.35-10.99,21.73-24.19,27.99-38.43,6.2-14.16,9.36-29.34,9.41-44.57h.01v-.39c0-9.06-1.13-18.13-3.35-27.02,5.92-1.44,11.65-3.32,17.15-5.65,13.31-5.66,25.28-13.8,35.33-23.84h-.01c10.08-10.08,18.25-22.09,23.91-35.46,5.65-13.37,8.78-28.09,8.78-43.45ZM388.13,389.93c-8.19-2.8-16.69-4.22-25.37-4.22-8.06,0-16.04,1.22-23.78,3.63l-.3.12c-10.61,3.69-20.96,5.54-30.75,5.54-17.29,0-32.3-5.73-43.4-16.53-10.04-9.78-15.78-23.17-15.78-36.74.02-12.09,4.45-23.81,12.83-33.87,4.19-5.03,3.52-12.52-1.49-16.72-2.13-1.78-4.82-2.76-7.61-2.76-3.52,0-6.85,1.55-9.1,4.25-12.02,14.38-18.37,31.35-18.35,49.08,0,19.93,8.36,39.53,22.94,53.74,15.37,15.02,36.65,23.3,60.02,23.3,12.35,0,25.25-2.3,38.18-6.77,5.4-1.69,10.99-2.54,16.63-2.54,8.81,0,17.52,2.14,25.37,6.22v102.42h-62.91c-6.55,0-11.86,5.33-11.86,11.88s5.31,11.86,11.86,11.86h62.91v130.57c0,9.8-1.91,19.3-5.53,28.09-.04.09-.09.14-.13.23-2.79,6.71-6.55,12.9-11.09,18.41-.1.14-.22.26-.32.37-.66.79-1.32,1.57-2,2.31-.6.68-1.24,1.31-1.87,1.95-.2.22-.4.45-.62.66h-.02c-.14.16-.29.27-.43.42-.7.7-1.44,1.41-2.17,2.07-.42.37-.83.73-1.25,1.09-.47.42-.95.83-1.43,1.23-.72.59-1.45,1.15-2.2,1.72-.19.14-.37.29-.56.43-4.71,3.53-9.87,6.49-15.34,8.82-2.18.92-4.41,1.72-6.68,2.44-.04.02-.06.02-.09.03-.99.3-1.98.59-2.99.85-.2.06-.39.11-.57.16-.86.23-1.72.4-2.58.6-.35.07-.68.16-1.02.23-.73.14-1.48.26-2.22.4-.48.07-.93.17-1.42.23-.66.12-1.33.17-2,.26-.55.07-1.11.14-1.65.2-.69.07-1.36.11-2.05.16-.55.04-1.09.1-1.64.13-1.08.06-2.17.07-3.26.07-.16,0-.32.01-.47.01-.17,0-.36-.01-.55-.01-1.06,0-2.13-.02-3.17-.07-.57-.03-1.13-.09-1.71-.13-.65-.04-1.32-.09-1.98-.16-.57-.06-1.13-.14-1.71-.2-.65-.08-1.31-.16-1.95-.26-.49-.06-.98-.16-1.46-.24-.73-.13-1.45-.24-2.17-.39-.36-.07-.72-.17-1.08-.24-.85-.19-1.7-.37-2.53-.59-.2-.06-.42-.11-.62-.17-.99-.26-1.97-.53-2.93-.83-.06-.01-.11-.03-.16-.04-2.25-.7-4.47-1.51-6.62-2.43-5.49-2.33-10.63-5.29-15.35-8.82-.2-.14-.39-.32-.59-.46-.73-.56-1.45-1.11-2.15-1.69-.53-.45-1.05-.9-1.58-1.35-.36-.32-.75-.63-1.11-.96-.88-.8-1.75-1.64-2.61-2.49-.01-.03-.03-.04-.04-.06-1.23-1.24-2.43-2.53-3.57-3.86-.19-.23-.39-.44-.57-.68-3.69-4.39-6.91-9.22-9.52-14.42-.04-.09-.11-.19-.17-.29-5-10.05-7.67-21.2-7.67-32.75,0-8.79,1.97-18.34,5.56-26.89,3.96-9.44,9.82-17.58,16.95-23.53,2.44-2.02,3.94-4.88,4.22-8.04.29-3.16-.68-6.23-2.7-8.68-2.25-2.7-5.59-4.25-9.12-4.25-2.77,0-5.47.98-7.6,2.74-10.04,8.37-18.21,19.65-23.65,32.59-4.82,11.53-7.38,24-7.4,36.05,0,8.7,1.16,17.32,3.45,25.69-1.27.5-2.56.99-3.86,1.42-.33.11-.69.23-1.02.33-.82.26-1.62.5-2.44.73-.52.14-1.03.29-1.56.43-.65.16-1.29.32-1.95.46-.6.16-1.21.29-1.81.4-.59.13-1.18.23-1.78.34-.63.12-1.26.22-1.91.32-.6.09-1.21.17-1.81.24-.6.07-1.22.16-1.82.23-.73.06-1.45.11-2.17.16-.5.04-.99.08-1.49.11-1.22.06-2.46.1-3.69.1-18.01,0-35.37-6.62-48.85-18.6-15.68-13.96-24.66-34.01-24.67-55.01,0-1.11.02-2.2.07-3.29.27-6.29,1.38-12.55,3.28-18.64.08-.27.16-.56.26-.85.03-.13.09-.26.13-.37.3-.92.62-1.85.96-2.77.01-.04.03-.07.06-.12.47-1.26.99-2.51,1.55-3.78.06-.11.12-.23.16-.34.59-1.29,1.21-2.57,1.88-3.86.02-.03.03-.04.03-.04,2.77-5.31,6.19-10.28,10.22-14.82,4.35-4.9,3.91-12.41-.99-16.76-2.17-1.94-4.97-3-7.87-3-3.39,0-6.63,1.47-8.88,3.99-.7.78-1.38,1.58-2.05,2.38-1.08.19-1.75.29-2.31.34-.93.09-2.13.12-4.71.12h-.21c-1.26,0-2.51-.04-3.76-.1-.07-.02-.16-.02-.23-.03-1.16-.06-2.31-.14-3.45-.27-.17,0-.36-.04-.53-.06-1.05-.11-2.08-.24-3.12-.4-.19-.03-.36-.06-.53-.09-1.05-.17-2.08-.35-3.1-.56-.11-.03-.22-.06-.33-.09-1.11-.23-2.18-.47-3.26-.75-.02-.01-.03-.01-.04-.01-3.49-.91-6.88-2.07-10.17-3.46-5.46-2.31-10.58-5.29-15.28-8.79-.2-.14-.39-.3-.59-.46-.73-.56-1.45-1.11-2.14-1.69-.52-.42-1.02-.86-1.52-1.31-.39-.32-.77-.66-1.15-.99-.89-.82-1.77-1.64-2.61-2.48-.86-.86-1.7-1.75-2.51-2.64-.17-.2-.35-.4-.53-.6-.6-.69-1.21-1.38-1.78-2.07-.49-.6-.95-1.21-1.42-1.81-.24-.32-.5-.63-.73-.95-.66-.87-1.28-1.75-1.9-2.66-.04-.07-.08-.13-.13-.19-2.64-3.92-4.93-8.1-6.78-12.48-1.35-3.22-2.48-6.53-3.37-9.95-.03-.11-.07-.23-.1-.34-.24-.95-.45-1.9-.66-2.87-.06-.23-.12-.47-.16-.73-.17-.85-.32-1.71-.46-2.57-.06-.36-.14-.7-.19-1.06-.12-.8-.22-1.61-.32-2.41-.04-.43-.1-.83-.14-1.26-.08-.83-.14-1.67-.19-2.5-.03-.4-.08-.8-.1-1.21-.06-1.22-.09-2.47-.09-3.73,0-1.74.06-3.47.19-5.18.07-1.16.22-2.31.36-3.46.06-.55.1-1.08.17-1.61.2-1.51.47-3,.78-4.48.04-.17.06-.35.09-.52.34-1.58.73-3.16,1.18-4.7.02-.07.03-.16.04-.22.44-1.54.93-3.04,1.46-4.55.04-.1.06-.19.1-.29.5-1.42,1.08-2.8,1.67-4.18.09-.19.14-.37.23-.55.58-1.32,1.22-2.61,1.88-3.89.12-.23.22-.47.33-.7.79-1.49,1.64-2.96,2.53-4.39.88-1.41,1.8-2.79,2.74-4.12,4.74-6.58,10.53-12.34,17.12-17.05.13-.1.24-.2.37-.29.23-.16.47-.3.7-.46,2.5-1.71,5.08-3.29,7.78-4.68l.03-.03c.08-.04.17-.09.24-.12.9-.47,1.82-.9,2.73-1.32.5-.23.99-.46,1.51-.69.04,0,.08-.04.13-.06,9.22-4.01,19.02-6.06,29.23-6.06,16.67,0,32.37,5.44,45.43,15.74,3,3.29,12.64,13.4,27.03,23.58,10.04,7.1,20.35,12.78,30.68,16.88,13.18,5.24,26.4,7.9,39.3,7.9,6.54,0,11.86-5.33,11.86-11.88s-5.33-11.86-11.86-11.86c-9.87,0-20.14-2.1-30.55-6.22-15.05-5.98-27.73-15.21-35.72-21.9-4.54-3.82-8.07-7.21-10.23-9.38-1.15-1.18-2.04-2.11-2.63-2.76l-.75-.83-.42-.47c-.19-.22-.39-.42-.62-.59l-.49-.42c-17.21-13.87-38.86-21.53-61.04-21.53-6.75,0-13.53.72-20.18,2.14-1.49-1.29-2.89-2.66-4.25-4.05-.5-.49-.99-.99-1.48-1.51-.42-.46-.82-.92-1.24-1.38-.36-.42-.75-.85-1.11-1.28-.77-.91-1.52-1.84-2.24-2.79-.14-.17-.26-.34-.39-.52-.62-.82-1.22-1.65-1.79-2.5-.11-.16-.22-.32-.33-.49-.59-.87-1.16-1.75-1.72-2.67-.07-.12-.14-.23-.2-.35-.59-.96-1.16-1.94-1.69-2.93-.04-.07-.07-.13-.11-.2-.56-1.06-1.11-2.13-1.64-3.2,0,0,0-.03-.02-.04-3.2-6.71-5.4-13.9-6.46-21.34-.01-.07-.03-.14-.03-.14-.16-1.12-.26-2.21-.37-3.29-.02-.19-.04-.37-.06-.56-.09-1.05-.14-2.1-.2-3.16,0-.2-.03-.4-.03-.6h0c-.03-.89-.04-1.77-.04-2.64,0-1.22.03-2.43.09-3.63.02-.4.06-.82.09-1.22.06-.79.1-1.58.17-2.36.04-.49.13-.95.17-1.44.09-.72.17-1.42.27-2.13.06-.46.14-.92.22-1.35.13-.73.24-1.46.39-2.18.07-.39.17-.78.26-1.15.16-.79.33-1.57.52-2.34.07-.29.16-.56.23-.85.23-.86.46-1.74.72-2.6.06-.16.12-.34.17-.52.3-.96.6-1.91.95-2.86.01-.07.06-.14.07-.21.37-1.03.76-2.07,1.19-3.09v-.03c.89-2.15,1.88-4.24,2.96-6.29l.02-.02c.53-1.02,1.09-2.01,1.67-2.99.04-.09.09-.16.13-.23.55-.9,1.11-1.81,1.68-2.7.13-.19.27-.39.4-.59.5-.75,1-1.49,1.54-2.23.3-.43.65-.85.96-1.26.37-.49.73-.99,1.12-1.48.63-.79,1.28-1.57,1.94-2.33.1-.11.19-.23.27-.33.79-.89,1.59-1.77,2.41-2.63.03-.02.04-.04.06-.06,1.08-1.11,2.18-2.17,3.32-3.2.3-.27.6-.55.92-.82,2.41-2.13,4.95-4.12,7.64-5.93.17-.1.34-.22.52-.33,2.86-1.9,5.86-3.59,8.99-5.08.03-.01.06-.03.07-.03,4.84-2.3,9.98-4.08,15.34-5.27.04-.01.08-.03.13-.04,4.37-.96,8.86-1.55,13.41-1.71.83-.04,1.65-.04,2.63-.04h.01c3.79,0,7.6.29,11.32.86.62.09,1.22.14,1.82.14,5.9,0,10.82-4.24,11.73-10.07.99-6.46-3.46-12.54-9.92-13.54-4.94-.76-9.95-1.15-14.95-1.15-.82,0-1.65.02-2.47.04-.53-.9-1.02-1.84-1.49-2.76-.53-.99-1.03-1.98-1.51-2.99-.17-.37-.34-.73-.5-1.12-.49-1.08-.96-2.14-1.39-3.23-.13-.33-.26-.68-.37-1-.43-1.12-.83-2.24-1.21-3.39-.12-.33-.22-.69-.32-1.02-.34-1.13-.67-2.26-.96-3.39-.12-.42-.2-.8-.3-1.22-.24-1.08-.5-2.15-.7-3.25-.12-.55-.19-1.08-.29-1.61-.16-.98-.32-1.94-.45-2.92-.1-.79-.17-1.58-.24-2.39-.07-.73-.16-1.47-.2-2.21-.1-1.54-.16-3.09-.16-4.65v-.03c0-16.96,5.84-33.31,16.5-46.39.12-.16.24-.3.37-.45.59-.72,1.19-1.44,1.82-2.14.39-.43.79-.83,1.18-1.25.5-.55,1.01-1.09,1.52-1.61,13.76-13.85,32.57-21.72,52.22-21.73h.13c1.27.02,2.51.04,3.78.12.4.03.8.06,1.19.08.96.07,1.94.16,2.9.26.36.04.72.09,1.09.13,1.26.16,2.54.34,3.81.56.01.01.04.01.07.01,1.35.24,2.7.53,4.05.86,11.58,2.76,22.38,8.3,31.48,16.26,2.53,2.87,13.47,15.04,27.65,27.61,9.55,8.44,18.64,15.38,27.03,20.61,5.27,3.27,10.15,5.83,14.91,7.81,5.63,2.34,10.8,3.75,15.81,4.29.45.06.88.09,1.32.09,6.06,0,11.12-4.54,11.79-10.57.35-3.15-.55-6.25-2.53-8.72-1.98-2.48-4.81-4.04-7.97-4.38-2.66-.29-5.87-1.21-9.32-2.64-5.95-2.46-13.06-6.69-20.57-12.25-11.17-8.26-21.69-18.18-28.54-25.06-3.89-3.91-7.05-7.27-9-9.39-1.06-1.16-1.9-2.08-2.46-2.7l-.62-.72-3.56,3.16,3.39-3.35-.3-.35-.4-.42-.36-.32c-7.25-6.48-15.37-11.81-24.17-15.84.6-6.54,2.07-12.83,4.27-18.76.07-.19.14-.36.22-.55.3-.8.62-1.59.95-2.38.13-.3.27-.6.4-.91.29-.66.57-1.32.87-1.95.19-.4.39-.77.57-1.16.27-.56.55-1.11.83-1.66.23-.43.49-.86.73-1.31.26-.47.52-.96.8-1.44.27-.49.57-.95.86-1.42.26-.42.5-.85.78-1.26.33-.52.68-1.02,1.02-1.54.24-.36.49-.72.75-1.08.39-.56.8-1.12,1.22-1.68.22-.29.42-.57.63-.86.5-.63,1-1.26,1.51-1.87.17-.2.32-.4.47-.6.62-.72,1.24-1.41,1.85-2.11.09-.09.17-.19.26-.27.72-.79,1.45-1.57,2.21-2.33.86-.85,1.74-1.68,2.63-2.5.26-.23.53-.45.79-.67.62-.56,1.25-1.11,1.9-1.65.6-.49,1.24-.98,1.87-1.45.29-.23.59-.47.89-.7.86-.65,1.75-1.26,2.64-1.88.07-.04.13-.1.2-.13,3.91-2.64,8.09-4.93,12.48-6.78,2.11-.89,4.29-1.7,6.51-2.38.1-.04.19-.07.27-.1.95-.29,1.91-.56,2.86-.82.23-.06.46-.12.7-.19.82-.22,1.65-.39,2.49-.58.37-.07.73-.17,1.11-.24.72-.14,1.44-.26,2.17-.39.49-.08.98-.19,1.46-.26.65-.1,1.31-.16,1.95-.24.57-.07,1.14-.16,1.71-.22.66-.06,1.35-.1,2.01-.14.56-.04,1.11-.1,1.68-.13,1.08-.06,2.15-.07,3.25-.09h.48c.19,0,.36,0,.55.01,1.06,0,2.13.02,3.19.07.57.03,1.15.09,1.71.13.66.04,1.32.09,1.97.14.59.07,1.16.14,1.75.22.63.08,1.28.14,1.91.24.5.07,1,.17,1.49.27.72.11,1.44.23,2.14.37.37.07.75.17,1.13.26.82.17,1.65.36,2.47.56.23.07.46.13.69.19.96.26,1.91.53,2.84.82.1.03.19.06.29.1,2.21.69,4.38,1.49,6.52,2.38,4.38,1.87,8.56,4.14,12.48,6.78.04.03.09.06.14.1.9.62,1.81,1.25,2.7,1.92.29.2.56.43.85.65.63.5,1.28.99,1.91,1.51.62.5,1.21,1.03,1.81,1.57.29.26.57.49.88.75.88.82,1.77,1.65,2.61,2.5.86.86,1.7,1.75,2.51,2.64.35.37.68.78,1.01,1.16.45.5.89,1.01,1.31,1.51,4.54,5.52,8.29,11.72,11.07,18.41.04.07.09.14.12.23,3.63,8.79,5.54,18.3,5.54,28.09v262.33h0ZM761.93,498.1c-.03.4-.07.8-.1,1.19-.04.85-.1,1.68-.19,2.51-.04.42-.1.82-.14,1.23-.1.8-.19,1.64-.32,2.44-.04.34-.11.69-.17,1.03-.14.86-.3,1.75-.47,2.61-.04.23-.1.46-.16.69-.2.98-.42,1.95-.68,2.92-.01.09-.04.19-.07.27-.89,3.45-2.02,6.78-3.39,10.01-2.33,5.47-5.3,10.63-8.82,15.34-.16.22-.34.45-.52.68-.53.69-1.08,1.39-1.64,2.07-.46.58-.95,1.12-1.44,1.68-.29.33-.58.68-.88,1.01-.8.89-1.64,1.77-2.48,2.61l-.02.02c-.13.11-.26.23-.39.36-.72.72-1.47,1.44-2.21,2.11-.39.35-.79.69-1.18,1.02-.49.44-.99.87-1.51,1.31-.69.56-1.39,1.11-2.1,1.65-.22.16-.43.33-.65.5-.92.68-1.85,1.35-2.8,2-.02,0-.02.01-.03.01-3.89,2.63-8.06,4.91-12.44,6.78-3.26,1.38-6.63,2.53-10.13,3.43-.03.01-.06.01-.09.03-1.08.27-2.15.52-3.23.75-.12.03-.24.06-.36.09-1.02.21-2.07.39-3.1.56-.17.03-.34.06-.52.09-1.03.16-2.08.29-3.13.4-.17.01-.35.06-.53.06-1.13.13-2.28.22-3.43.27-.09.01-.17.01-.24.03-1.25.06-2.5.1-3.76.1h-.22c-1.28,0-2.23,0-2.92-.03-.89-.02-1.29-.06-1.94-.16-.56-.09-1.28-.22-2.28-.4-.63-.76-1.28-1.51-1.94-2.25-2.24-2.53-5.49-3.99-8.87-3.99-2.9,0-5.7,1.06-7.87,3-4.9,4.35-5.34,11.86-.99,16.76,4.04,4.54,7.44,9.49,10.21,14.78.02.03.03.06.04.09.68,1.29,1.29,2.58,1.88,3.88.06.1.1.22.14.32.58,1.28,1.11,2.57,1.59,3.85.02.01.02.04.03.06.09.26.17.5.26.76.29.79.59,1.59.85,2.4v.02c2.4,7.38,3.59,15.08,3.59,22.75-.01,19.68-7.91,38.52-21.79,52.29-.93.92-1.9,1.82-2.89,2.72-.85.75-1.71,1.48-2.59,2.2-13.07,10.58-29.37,16.4-46.26,16.4-1.24,0-2.46-.04-3.69-.1-.49-.03-.98-.07-1.47-.1-.73-.06-1.47-.1-2.21-.17-.59-.07-1.16-.16-1.75-.22-.63-.09-1.28-.17-1.91-.26-.6-.1-1.21-.2-1.81-.32-.63-.12-1.27-.23-1.88-.34-.57-.13-1.15-.24-1.71-.37-.7-.17-1.41-.33-2.11-.52-.47-.13-.95-.26-1.41-.39-.89-.24-1.78-.52-2.66-.79-.27-.1-.55-.17-.82-.27-1.31-.43-2.61-.92-3.91-1.44,2.28-8.37,3.45-16.99,3.45-25.69-.02-9.45-1.64-19.42-4.71-28.83-5.26-16.04-14.36-29.82-26.34-39.81-6.84-5.7-14.55-10.13-22.94-13.14-8.96-3.22-18.76-4.85-29.1-4.85-6.55,0-11.88,5.31-11.88,11.86s5.33,11.86,11.86,11.86c9.95.01,18.97,2.01,26.84,5.95,10.2,5.11,18.66,13.67,24.47,24.79,5.13,9.77,8.06,21.49,8.04,32.17,0,11.55-2.67,22.69-7.67,32.75-.06.09-.12.2-.17.29-2.61,5.2-5.83,10.04-9.52,14.43-.19.22-.37.43-.58.65-1.15,1.35-2.36,2.67-3.6,3.92h-.02c-.14.16-.29.27-.43.42-.72.7-1.44,1.41-2.18,2.07-.4.37-.83.73-1.25,1.09-.47.42-.93.83-1.42,1.23-.73.59-1.47,1.15-2.2,1.72-.19.14-.37.29-.56.43-4.72,3.53-9.87,6.49-15.35,8.82-2.18.92-4.41,1.72-6.68,2.44-.03.02-.06.02-.09.03-.98.3-1.98.59-2.99.85-.19.06-.37.11-.56.16-.86.23-1.72.4-2.59.6-.34.07-.69.16-1.02.23-.75.14-1.49.26-2.23.4-.47.07-.95.17-1.42.23-.66.12-1.32.17-2,.26-.56.07-1.11.14-1.67.2-.68.07-1.35.11-2.04.16-.55.04-1.09.1-1.65.13-1.08.06-2.15.07-3.25.07-.16,0-.31.01-.47.01-.19,0-.36-.01-.55-.01-1.06,0-2.14-.02-3.19-.07-.56-.03-1.13-.09-1.69-.13-.66-.04-1.32-.09-1.98-.16-.57-.06-1.15-.14-1.71-.2-.66-.08-1.31-.16-1.95-.26-.49-.06-.98-.16-1.47-.24-.73-.13-1.45-.24-2.18-.39-.36-.07-.7-.17-1.06-.24-.85-.19-1.7-.37-2.53-.59-.22-.06-.42-.11-.62-.17-.99-.26-1.98-.53-2.94-.83-.04-.01-.1-.03-.14-.04-2.27-.7-4.47-1.51-6.64-2.43-5.47-2.33-10.63-5.29-15.34-8.82-.2-.14-.4-.32-.6-.46-.72-.56-1.45-1.11-2.15-1.69-.53-.45-1.05-.9-1.57-1.35-.36-.32-.75-.63-1.11-.96-.89-.8-1.77-1.64-2.62-2.49s-1.69-1.74-2.51-2.64c-.47-.52-.93-1.08-1.39-1.61-.3-.36-.62-.72-.92-1.06-4.54-5.52-8.29-11.72-11.07-18.41-.04-.09-.09-.14-.13-.23-3.62-8.79-5.53-18.3-5.53-28.09v-294.14c15.18.57,28.44,2.33,39.42,5.2,10.53,2.73,19.04,6.43,26.01,11.29,5.23,3.65,9.47,7.87,13,12.94,5.08,7.28,8.7,16.39,11.72,29.51,1.01,4.34,1.87,8.7,2.77,13.33.85,4.28,1.72,8.73,2.71,13.11,1.9,8.34,3.82,14.64,6.23,20.44,2.3,5.54,4.95,10.37,8.14,14.72,5.43,7.48,12.45,13.54,20.88,18.03,8.99,4.8,19.55,7.93,32.29,9.56.52.07,1.02.12,1.54.12,5.93,0,10.99-4.45,11.75-10.37.42-3.13-.43-6.26-2.37-8.76-1.94-2.51-4.74-4.11-7.87-4.52-11.4-1.47-20.27-4.32-27.09-8.69-4.96-3.19-8.73-7.07-11.86-12.21-2.44-4.02-4.48-8.88-6.25-14.88-1.9-6.36-3.29-13.41-4.75-20.88-.85-4.3-1.72-8.75-2.74-13.24-1.79-7.93-4.49-18.34-9.51-28.48-3.81-7.67-8.62-14.48-14.33-20.24-9.67-9.78-22.59-17.21-38.4-22.09-14.33-4.41-31.14-6.92-51.29-7.61v-85.69h68.84c6.55,0,11.88-5.34,11.88-11.88s-5.33-11.88-11.88-11.88h-68.84v-117.48c0-9.8,1.91-19.3,5.53-28.09.04-.09.09-.16.13-.23,2.79-6.69,6.53-12.9,11.07-18.41.24-.29.5-.58.75-.86.52-.6,1.03-1.22,1.58-1.82.63-.7,1.28-1.37,1.94-2.04.19-.19.36-.39.56-.59.85-.86,1.74-1.69,2.63-2.5.26-.23.52-.45.78-.67.63-.56,1.26-1.11,1.9-1.65.62-.49,1.24-.98,1.87-1.45.3-.23.59-.47.89-.7.88-.65,1.75-1.26,2.66-1.88.07-.04.13-.1.19-.13,3.92-2.64,8.1-4.93,12.48-6.78,2.12-.89,4.31-1.7,6.52-2.38.1-.04.19-.07.29-.1.92-.29,1.88-.56,2.84-.82.23-.06.46-.12.69-.19.83-.22,1.67-.39,2.5-.58.36-.07.73-.17,1.09-.24.73-.14,1.47-.26,2.18-.39.49-.08.98-.19,1.47-.26.65-.1,1.29-.16,1.95-.24.56-.07,1.14-.16,1.71-.22.66-.06,1.34-.1,2.01-.14.56-.04,1.11-.1,1.67-.13,1.08-.06,2.17-.07,3.26-.09h.47c.17,0,.36,0,.55.01,1.06,0,2.13.02,3.18.07.57.03,1.15.09,1.72.13.66.04,1.32.09,1.97.14.58.07,1.16.14,1.75.22.63.08,1.28.14,1.9.24.52.07,1,.17,1.51.27.7.11,1.42.23,2.12.37.39.07.76.17,1.13.26.82.17,1.65.36,2.47.56.24.07.47.13.7.19.95.26,1.91.53,2.84.82.09.03.19.06.27.1,2.23.69,4.41,1.49,6.52,2.38,4.4,1.87,8.58,4.14,12.5,6.78.04.03.09.06.13.1.92.62,1.82,1.25,2.72,1.92.27.2.56.43.83.65.65.5,1.29.99,1.91,1.51.62.5,1.22,1.03,1.82,1.57.29.26.59.49.86.75.89.82,1.77,1.65,2.63,2.5.76.76,1.49,1.54,2.23,2.33.01.01.01.03.03.04.7.76,1.39,1.55,2.05,2.34.14.17.27.34.4.5.55.65,1.08,1.31,1.59,1.97.22.29.4.58.62.85.42.56.83,1.12,1.24,1.7.26.36.5.73.75,1.09.34.5.69,1.01,1.02,1.52.27.42.53.85.79,1.28.29.46.58.93.85,1.41.29.48.55.96.82,1.46.24.42.49.85.72,1.28.29.56.56,1.13.85,1.69.19.37.37.75.56,1.13.3.65.59,1.31.88,1.98.13.29.27.58.4.89.33.78.65,1.58.96,2.39.06.19.13.36.2.53,2.2,5.93,3.66,12.22,4.27,18.77-8.8,4.04-16.92,9.35-24.19,15.83-4.88,4.37-5.3,11.89-.95,16.78,2.25,2.51,5.47,3.96,8.86,3.96,2.92,0,5.72-1.08,7.9-3.02,9.15-8.17,20.08-13.85,31.81-16.66,2.69-.63,5.4-1.12,8.12-1.46.32-.04.63-.07.95-.1,1-.13,2.02-.21,3.04-.27.36-.03.75-.06,1.12-.09,1.26-.06,2.54-.11,3.82-.11h.12c19.65.01,38.48,7.87,52.22,21.72.92.92,1.82,1.88,2.72,2.87.73.83,1.45,1.67,2.14,2.5.65.8,1.28,1.61,1.88,2.43.04.06.09.1.13.16.56.76,1.09,1.52,1.62,2.3.09.13.19.26.27.39.47.69.9,1.38,1.33,2.08.16.23.3.45.45.69.36.59.7,1.19,1.05,1.81.19.35.4.69.59,1.04.27.49.52.99.78,1.49.24.46.5.95.73,1.42.19.39.37.79.56,1.18.26.59.55,1.18.79,1.78.14.33.27.66.42.99.27.66.55,1.32.79,1.98.12.32.22.63.34.95.24.69.47,1.36.7,2.05.1.32.19.63.29.95.22.69.43,1.38.62,2.08.1.37.19.75.29,1.12.17.63.33,1.27.47,1.91.12.52.23,1.05.33,1.58.1.49.2.98.3,1.48.13.76.24,1.54.36,2.31.04.24.09.52.13.78.43,3.17.65,6.4.65,9.7,0,1.51-.06,3.02-.16,4.54-.01.33-.04.66-.06,1-.11,1.44-.26,2.89-.46,4.34-.04.33-.1.66-.14.99-.17,1.21-.37,2.4-.62,3.59-.07.39-.14.78-.21,1.16-.3,1.34-.63,2.67-.98,4.01-.13.5-.27,1.01-.42,1.51-.35,1.18-.7,2.34-1.11,3.5-.16.49-.35.98-.5,1.47-.4,1.12-.83,2.21-1.28,3.3-.19.46-.37.92-.58,1.36-.56,1.31-1.16,2.63-1.8,3.92-.17.34-.36.69-.55,1.05-.63,1.25-1.32,2.51-2.02,3.75-1.78,3.07-3.73,6.06-5.92,8.93-.29.33-.56.69-.8,1.05-2.2,2.8-4.5,5.43-6.84,7.78-4.28,4.32-10.33,8.75-17.46,12.81-10.69,6.08-22.32,10.56-30.21,13.23-4.49,1.54-8.26,2.66-10.61,3.33-1.28.34-2.28.63-2.97.8l-.92.23c-6.36,1.55-10.28,7.99-8.75,14.33,1.29,5.36,6.03,9.08,11.53,9.08.95,0,1.9-.11,2.82-.33,1.25-.3,12.67-3.16,27.06-8.82,8.73-3.45,16.73-7.22,23.77-11.22,9.26-5.26,16.65-10.74,22.61-16.75,1.88-1.88,3.72-3.89,5.5-5.98,1.81.03,3.63.14,5.46.29.07.03.16.04.24.04.95.08,1.61.14,2,.17.03.02.06.02.07.02.12,0,.22.03.26.03h.03c.39.06.78.12,1.16.17.66.1,1.34.17,2,.29,12.35,2.13,23.84,7.54,33.31,15.64.1.08.19.17.29.26.59.5,1.16,1.03,1.74,1.57.2.19.42.37.63.56.43.42.86.86,1.29,1.31.32.3.63.6.93.93.24.24.46.5.69.75.47.5.95,1.01,1.41,1.52h0c1.22,1.39,2.37,2.83,3.47,4.31.12.17.25.33.39.5.4.56.79,1.15,1.19,1.71.19.27.39.56.57.85.33.5.65,1,.98,1.52.23.37.46.73.69,1.09.27.46.52.92.79,1.37.24.45.52.89.76,1.34.22.4.4.8.62,1.21.26.52.55,1.04.8,1.57.16.33.3.68.46,1.02.29.6.58,1.21.83,1.81.11.27.21.55.34.82.27.69.56,1.38.83,2.08.07.2.14.43.23.63.27.76.55,1.52.8,2.3.06.16.1.32.14.49.27.82.53,1.65.76,2.48.03.13.06.24.08.37.24.88.47,1.74.68,2.63.03.12.04.23.07.34.2.89.39,1.8.56,2.69.03.16.04.3.07.44.14.86.3,1.74.42,2.62.03.23.04.46.09.68.1.8.19,1.61.27,2.41.03.39.06.78.07,1.16.06.66.11,1.31.14,1.95.04,1.05.07,2.1.07,3.16,0,1.42-.06,2.86-.14,4.29-.09,1.42-.22,2.87-.39,4.31-.02.06-.03.1-.03.16-.13,1.09-.3,2.18-.49,3.25-.03.17-.07.33-.1.49-.17,1.01-.37,2-.6,2.99,0,.04-.02.09-.03.11-2.86,12.38-9.09,23.76-17.95,32.82-.08.09-.16.16-.24.24-.68.69-1.38,1.38-2.1,2.04-.17.16-.35.31-.53.49-1.62,1.47-3.3,2.89-5.07,4.22-7.51-1.82-15.17-2.74-22.82-2.74-22.16,0-43.82,7.66-61.02,21.53-5.08,4.11-5.89,11.6-1.78,16.69,2.27,2.82,5.63,4.42,9.25,4.42,2.7,0,5.34-.93,7.45-2.63,13.18-10.64,29.14-16.27,46.12-16.27,5.62,0,11.19.63,16.6,1.9,2.07,1.61,4.68,2.53,7.34,2.53.33,0,.66-.02,1-.04,3.07,1.1,5.99,2.37,8.69,3.76.06.03.12.06.16.09h.04v.03l.03.02c2.7,1.39,5.28,2.97,7.78,4.68.23.16.47.3.7.46.13.09.24.2.37.29,7.93,5.67,14.71,12.87,19.86,21.17.89,1.44,1.72,2.9,2.51,4.39.16.29.29.59.43.89.63,1.22,1.23,2.44,1.8,3.68.08.21.17.44.26.65.58,1.37,1.14,2.72,1.64,4.11.04.12.07.24.12.36.53,1.48,1.02,2.96,1.45,4.48.01.09.03.17.06.26.43,1.54.82,3.09,1.16,4.65.03.19.06.36.09.55.3,1.47.57,2.96.78,4.45.07.53.12,1.06.17,1.61.14,1.15.29,2.3.36,3.46.13,1.71.19,3.45.19,5.18.01,1.27-.01,2.52-.07,3.74Z"/>
</svg>