<?xml version="1.0" encoding="UTF-8"?>
<svg id="Capa_1" data-name="Capa 1" xmlns="http://www.w3.org/2000/svg" viewBox="0 0 925.13 843.25">
  <defs>
    <style>
      .cls-1 {
        fill: #fff;
      }
    </style>
  </defs>
  <path class="cls-1" d="M721.25,670.45h62.88c27.89,47.35,78.75,76.42,133.71,76.42h7.29v-268.01h-7.29c-54.96,0-105.82,29.07-133.71,76.42h-62.88v115.16Z"/>
  <rect class="cls-1" x="44.77" y="382.5" width="641.47" height="460.75"/>
  <path class="cls-1" d="M543.73,347.38c8.5.67,16.99.71,25.32.11,90.17-6.49,161.32-81.69,161.32-173.52S652.47,0,556.38,0c-90.98,0-165.64,69.84-173.32,158.83-.87,10.08-.87,20.23,0,30.31,4.88,56.6,38.23,108.27,87.62,136.28,21.82,12.38,47.49,19.97,73.05,21.97ZM556.38,98.72c41.57,0,75.26,33.69,75.26,75.26s-33.7,75.26-75.26,75.26-75.26-33.7-75.26-75.26,33.7-75.26,75.26-75.26Z"/>
  <path class="cls-1" d="M161.31,347.38c8.5.67,16.99.71,25.32.11,90.17-6.49,161.32-81.69,161.32-173.52S270.05,0,173.97,0C82.99,0,8.33,69.84.65,158.83c-.87,10.08-.87,20.23,0,30.31,4.88,56.6,38.23,108.27,87.62,136.28,21.82,12.38,47.49,19.97,73.05,21.97ZM173.97,98.72c41.57,0,75.26,33.69,75.26,75.26s-33.7,75.26-75.26,75.26-75.26-33.7-75.26-75.26,33.7-75.26,75.26-75.26Z"/>
</svg>