<?xml version="1.0" encoding="UTF-8"?>
<svg id="Laag_1" xmlns="http://www.w3.org/2000/svg" version="1.1" viewBox="0 0 800 800">
  <!-- Generator: Adobe Illustrator 29.4.0, SVG Export Plug-In . SVG Version: 2.1.0 Build 152)  -->
  <defs>
    <style>
      .st0 {
        fill: #fff;
        fill-rule: evenodd;
      }
    </style>
  </defs>
  <path class="st0" d="M325.88,104.01c-15.87-27.78,4.18-62.34,36.18-62.34h75.89c31.99,0,52.05,34.56,36.18,62.34l-37.95,66.41c-16,27.99-56.36,27.99-72.35,0l-37.95-66.41ZM376.41,91.67l23.59,41.28,23.59-41.28h-47.17ZM264.84,108.33h18.5c13.81,0,25,11.19,25,25s-11.19,25-25,25h-16.67c-2.83,0-5.61,0-8.33,0v483.33h25c13.81,0,25,11.19,25,25s-11.19,25-25,25h-18.5c-10.45,0-20.44,0-29.97-.05-.51.03-1.02.05-1.54.05-.61,0-1.22-.02-1.82-.06-30.58-.19-56.42-.93-77.91-3.82-30-4.03-55.27-12.66-75.33-32.73-20.06-20.07-28.69-45.33-32.73-75.33-3.89-28.9-3.88-65.64-3.88-111.23v-136.99c0-45.59,0-82.33,3.88-111.23,4.03-30,12.66-55.27,32.73-75.33,20.06-20.06,45.33-28.69,75.33-32.73,21.49-2.89,47.33-3.63,77.91-3.82.6-.04,1.2-.07,1.81-.07.52,0,1.03.02,1.54.05,9.53-.05,19.52-.05,29.97-.05ZM208.33,158.7c-18.97.41-34.67,1.27-48.06,3.07-24.46,3.29-37.41,9.3-46.64,18.53-9.23,9.23-15.24,22.18-18.53,46.64-1.8,13.39-2.66,29.1-3.07,48.06h116.29v-116.29ZM208.33,325h-116.67c0,2.73,0,5.51,0,8.33v133.33c0,2.83,0,5.61,0,8.33h116.67v-150ZM208.33,525h-116.29c.41,18.97,1.27,34.67,3.07,48.06,3.29,24.46,9.3,37.41,18.53,46.64,9.23,9.23,22.18,15.24,46.64,18.53,13.39,1.8,29.1,2.66,48.06,3.07v-116.3ZM541.67,158.33c-2.73,0-5.51,0-8.33,0h-16.67c-13.81,0-25-11.19-25-25s11.19-25,25-25h18.5c10.45,0,20.44,0,29.97.05.51-.03,1.02-.05,1.53-.05.61,0,1.22.02,1.81.07,30.58.19,56.42.93,77.91,3.82,30,4.03,55.26,12.66,75.33,32.73,20.06,20.06,28.69,45.33,32.73,75.33,3.88,28.9,3.88,65.64,3.88,111.23v136.99c0,45.59,0,82.33-3.88,111.23-4.03,30-12.66,55.26-32.73,75.33-20.07,20.06-45.33,28.69-75.33,32.73-21.5,2.89-47.33,3.63-77.91,3.82-.6.04-1.2.06-1.81.06-.52,0-1.03-.02-1.53-.05-9.53.05-19.52.05-29.97.05h-18.5c-13.81,0-25-11.19-25-25s11.19-25,25-25h25V158.33ZM591.67,158.7v116.29h116.3c-.41-18.97-1.27-34.67-3.07-48.06-3.29-24.46-9.3-37.41-18.53-46.64s-22.18-15.24-46.64-18.53c-13.39-1.8-29.1-2.66-48.06-3.07ZM708.33,325h-116.67v150h116.67v-150ZM707.96,525h-116.3v116.3c18.97-.41,34.67-1.27,48.06-3.07,24.46-3.29,37.41-9.3,46.64-18.53s15.24-22.18,18.53-46.64c1.8-13.39,2.66-29.1,3.07-48.06ZM400,225c13.81,0,25,11.19,25,25v33.33c0,13.81-11.19,25-25,25s-25-11.19-25-25v-33.33c0-13.81,11.19-25,25-25ZM400,358.33c13.81,0,25,11.19,25,25v33.33c0,13.81-11.19,25-25,25s-25-11.19-25-25v-33.33c0-13.81,11.19-25,25-25ZM400,491.67c13.81,0,25,11.19,25,25v33.33c0,13.81-11.19,25-25,25s-25-11.19-25-25v-33.33c0-13.81,11.19-25,25-25ZM325.88,695.99l37.95-66.41c16-27.99,56.36-27.99,72.35,0l37.95,66.41c15.87,27.78-4.18,62.34-36.18,62.34h-75.89c-31.99,0-52.05-34.56-36.18-62.34ZM400,667.06l-23.59,41.28h47.17l-23.59-41.28Z"/>
</svg>