<?xml version="1.0" encoding="UTF-8"?>
<svg id="Capa_1" xmlns="http://www.w3.org/2000/svg" version="1.1" viewBox="0 0 800 800">
  <!-- Generator: Adobe Illustrator 29.4.0, SVG Export Plug-In . SVG Version: 2.1.0 Build 152)  -->
  <defs>
    <style>
      .st0 {
        fill: #fff;
      }
    </style>
  </defs>
  <path class="st0" d="M702.34,95.59H97.83C43.87,95.59,0,139.46,0,193.42v413.16c0,53.96,43.87,97.83,97.83,97.83h604.35c53.96,0,97.83-43.87,97.83-97.83V193.59c.17-53.96-43.7-97.99-97.66-97.99ZM755.47,606.58c0,29.3-23.84,53.13-53.13,53.13H97.83c-29.3,0-53.13-23.84-53.13-53.13V193.59c0-29.3,23.84-53.13,53.13-53.13h604.35c29.3,0,53.13,23.84,53.13,53.13v412.99h.17Z"/>
  <path class="st0" d="M504.53,394.87l195.65-175.46c9.1-8.28,9.93-22.35,1.66-31.62-8.28-9.1-22.35-9.93-31.62-1.66l-269.81,242.17-52.64-47.01c-.17-.17-.33-.33-.33-.5-1.16-1.16-2.32-2.15-3.64-3.15l-214.19-191.68c-9.27-8.28-23.34-7.45-31.62,1.82s-7.45,23.34,1.82,31.62l197.97,176.95-197.14,184.56c-8.94,8.44-9.44,22.51-.99,31.62,4.47,4.63,10.43,7.12,16.39,7.12,5.46,0,10.92-1.99,15.23-5.96l200.12-187.21,54.29,48.5c4.3,3.81,9.6,5.63,14.9,5.63s10.76-1.99,14.9-5.79l55.78-49.99,198.97,189.03c4.3,4.14,9.93,6.12,15.39,6.12,5.96,0,11.75-2.32,16.22-6.95,8.44-8.94,8.11-23.17-.83-31.62l-196.48-186.55Z"/>
</svg>