<?xml version="1.0" encoding="UTF-8"?>
<svg id="Capa_1" xmlns="http://www.w3.org/2000/svg" version="1.1" viewBox="0 0 800 610.22">
  <!-- Generator: Adobe Illustrator 29.4.0, SVG Export Plug-In . SVG Version: 2.1.0 Build 152)  -->
  <defs>
    <style>
      .st0 {
        fill: #fff;
      }
    </style>
  </defs>
  <path class="st0" d="M720.66,43.25H79.34C35.59,43.25,0,78.84,0,122.59v365.03c0,43.75,35.59,79.34,79.34,79.34h641.32c43.75,0,79.34-35.59,79.34-79.34V122.59c0-43.75-35.59-79.34-79.34-79.34ZM747.11,122.59v365.03c0,4.17-1.18,7.98-2.91,11.49l-186.97-186.99,189.82-189.82c0,.11.05.18.05.29ZM52.89,487.62V122.59c0-.1.05-.18.05-.28l189.82,189.82L55.79,499.12c-1.72-3.51-2.89-7.32-2.89-11.49ZM408.16,386.41c-4.36,4.36-11.96,4.36-16.32,0L101.59,96.15h596.84l-290.26,290.26ZM280.17,349.53l74.27,74.28c12.18,12.18,28.36,18.88,45.56,18.88s33.38-6.7,45.56-18.88l74.28-74.28,164.52,164.54H115.63l164.54-164.54Z"/>
</svg>