<?xml version="1.0" encoding="UTF-8"?>
<svg id="Laag_1" data-name="Laag 1" xmlns="http://www.w3.org/2000/svg" viewBox="0 0 600 566.67">
  <defs>
    <style>
      .cls-1 {
        fill: #fff;
      }
    </style>
  </defs>
  <path class="cls-1" d="M418.54,363.54l-15.18,15.09s-36.09,35.88-134.59-62.06c-98.5-97.94-62.41-133.82-62.41-133.82l9.56-9.51c23.55-23.42,25.77-61.02,5.22-88.46l-42.03-56.15C153.68-5.34,104.53-9.82,75.38,19.16l-52.32,52.02C8.61,85.56-1.08,104.19.1,124.85c3,52.87,26.93,166.64,160.42,299.37,141.56,140.75,274.38,146.35,328.7,141.28,17.18-1.6,32.12-10.35,44.16-22.32l47.35-47.08c31.96-31.78,22.95-86.27-17.95-108.5l-63.68-34.62c-26.85-14.6-59.57-10.31-80.55,10.56Z"/>
</svg>