<?xml version="1.0" encoding="UTF-8"?>
<svg id="Laag_1" xmlns="http://www.w3.org/2000/svg" version="1.1" viewBox="0 0 800 800">
  <!-- Generator: Adobe Illustrator 29.4.0, SVG Export Plug-In . SVG Version: 2.1.0 Build 152)  -->
  <defs>
    <style>
      .st0 {
        fill: #fff;
      }
    </style>
  </defs>
  <path class="st0" d="M704.35,187.42c-81.98-17.54-143.05-86.3-150.78-169.78V0h-137.78v546.81c-.23,63.97-52.26,115.64-116.23,115.42-36.04-.13-69.96-17.02-91.78-45.71l-.08-.04.08.04c-38.68-50.92-28.76-123.56,22.15-162.24,30.01-22.8,69.24-29.56,105.15-18.14v-139.98c-138.48-19.14-266.26,77.6-285.4,216.08-10.71,77.49,15.01,155.58,69.67,211.54,97.73,99.99,258.01,101.83,358.01,4.1,48.73-47.63,76.21-112.9,76.21-181.04v-279.4c55.68,39.81,122.45,61.15,190.89,61.03v-136.9c-13.48.02-26.92-1.38-40.11-4.16Z"/>
</svg>